<?xml version="1.0" encoding="UTF-8"?>
<!DOCTYPE svg PUBLIC "-//W3C//DTD SVG 1.1//EN" "http://www.w3.org/Graphics/SVG/1.1/DTD/svg11.dtd">
<!-- Creator: CorelDRAW 2020 (64 Bit) -->
<svg xmlns="http://www.w3.org/2000/svg" xml:space="preserve" width="21.1936mm" height="25.3998mm" version="1.1" style="shape-rendering:geometricPrecision; text-rendering:geometricPrecision; image-rendering:optimizeQuality; fill-rule:evenodd; clip-rule:evenodd"
viewBox="0 0 2119.36 2539.98"
 xmlns:xlink="http://www.w3.org/1999/xlink"
 xmlns:xodm="http://www.corel.com/coreldraw/odm/2003">
 <defs>
  <style type="text/css">
   <![CDATA[
    .fil1 {fill:black}
    .fil2 {fill:black}
    .fil0 {fill:#B73E86}
   ]]>
  </style>
 </defs>
 <g id="Camada_x0020_1">
  <metadata id="CorelCorpID_0Corel-Layer"/>
  <g id="_1949430303504">
   <path class="fil0" d="M974.85 2177.84c23.04,-82.39 95.79,-250.31 153.2,-296.03 133.25,162.96 -0.46,100.08 233.07,105.19l-152.27 298.7 -86.56 -125.17 -147.44 17.31zm97.13 -745.14c10.26,182.82 175.37,332.3 383.81,309.45 176.91,-19.39 312.65,-175.56 297.06,-370.03 -34.58,-431.54 -706.94,-403.72 -680.87,60.58zm-253.36 0c62.69,115.78 106.5,44.86 98.38,207.88 -8.61,172.84 5.48,128.62 133.49,194.68 -47.22,104.17 -181.21,313.88 -178.68,423.33l212.1 -18.16c57.28,77.06 70.99,138.79 131.73,168.6 77.57,-65.87 175.66,-346.02 245.61,-441.79 199.11,66.4 138.93,33.72 236.17,-85.33 57.95,46.68 130.35,214.03 152.81,296.02l-147.32 -17.32 -86.26 125.04c-40.79,-75.41 -38.18,-120.07 -120.95,-149.59 -23.48,68.25 47.55,215.41 114.12,272.92 63.57,-31.12 72.48,-90.6 131.39,-165.64l210.97 22.44c4.87,-114.24 -130.24,-327.4 -177.21,-430.71 107.9,-52.66 142.31,-19.39 135.02,-175.9 -9.11,-195.99 25.57,-95.05 96.56,-226.47 -1.09,-166.97 -82.22,-123.04 -98.32,-222.31 -16.96,-104.58 60.17,-172.01 -81.32,-216.27 -225.87,-70.67 -53.77,5.86 -181.89,-145.42 -86.57,-102.22 -138.41,6.06 -232.29,6.06 -84.03,0 -136.57,-96.1 -223.1,-19.29 -125.45,111.35 44.96,97.25 -172.47,154.72 -152.71,40.36 -90.94,83.33 -98.78,204.44 -7.73,119.31 -97.78,62.92 -99.76,238.07z"/>
   <path class="fil0" d="M1071.98 1432.7c-26.07,-464.3 646.29,-492.12 680.87,-60.58 15.59,194.47 -120.15,350.64 -297.06,370.03 -208.44,22.85 -373.55,-126.63 -383.81,-309.45zm-183.75 -21.9c141.45,218.81 71.23,23.97 99.56,316.12 62.8,27.03 115.61,22.22 162.38,55.47 56.47,40.15 44.08,79.16 94.96,145.22 79.62,-12.39 81.65,-52.89 167.57,-53.06 82.41,-0.17 90.1,38.59 167.93,53.26 131.89,-228.06 42.01,-101.26 257.14,-201.27 22.42,-285.65 -39.05,-106.68 99.51,-315.74 -35.62,-79.05 -71.19,-73.61 -94.02,-145.71 -26.89,-84.96 11.31,-110.5 -12.02,-182.49 -135.98,-89.7 -173.38,-8.99 -235.83,-206.03 -94.05,15.92 -110.09,53.38 -182.63,53.43 -72.35,0.04 -88.94,-37.45 -183.02,-53.43 -84.2,264.53 -189.36,118.31 -238.8,216.65 -17.32,34.45 14.22,100.16 -8.65,171.83 -23.97,75.12 -58.15,64.37 -94.08,145.75z"/>
   <path class="fil1" d="M468.82 789.69c-22.81,-61.97 -47.83,-54.53 -105.83,-107.52 -121.02,-110.59 -198.65,-304.7 -188.66,-475.84 108.42,-5.12 108.94,25.3 143.84,-58.17l-212.71 -16.11c-51.58,254.46 197.96,770.22 363.36,657.64z"/>
   <path class="fil2" d="M1374.3 139.58c36.13,91.49 37.32,61.82 144.55,66.65 24.23,409.71 -288.12,494.95 -290.77,596.49 81.94,11.23 109.21,-24.39 165.26,-79.52 133.95,-131.74 236.21,-390.1 194.2,-585.37l-213.24 1.75z"/>
   <path class="fil1" d="M1207.29 1664.54l-8.68 72.71 -642.19 -14.78c12.98,-11.65 -2.92,-78.77 6.74,-85.81 28.73,-20.94 78.53,-30.08 143.99,-29.75 110.8,0.56 427.05,-7.31 500.14,57.63zm-367.97 -336.29c156.56,52.68 102.26,14.48 145.47,236.65l-204.14 0.49 58.67 -237.14zm43.68 -162.63c85.02,0.04 64.4,4.52 68.47,92.07l-136.82 -1.46c2.67,-87.22 -14.35,-90.65 68.35,-90.61zm359.86 -910.64c80.68,267.73 -136.09,838.64 -359.76,838.86 -220.02,0.22 -440.56,-570.11 -359.74,-840.76l719.5 1.9zm-127.17 1011.42l-87.06 -10.1c-16.55,-44.48 -19,-11.95 -17.94,-74.26 1.72,-100.61 15.85,-56.85 24.9,-72.76 157.06,-100.89 382.95,-658.01 273.35,-921.83l-851.95 -5.08c-73.1,184.56 29.77,619.78 167.89,820.22 82.71,120.04 117.65,58.57 118.93,223.85 -67.66,68.12 -36.4,-3.39 -98.21,65.7 59.27,75.85 25.04,-2.29 98.12,65.7 -3.43,107.93 -28.54,164.83 -109.99,191.88 -154.52,51.3 -142.65,-40.68 -143.45,165.92 -118.72,7 -124.56,-23.68 -153.48,62.04l1092.24 10.67c-28.64,-95.83 -34.72,-65.7 -153.01,-72.61 -0.91,-206.5 10.86,-114.92 -143.53,-166.06 -83.85,-27.77 -106.51,-81.54 -109.85,-191.84 75.94,-71.04 95.68,10.11 93.04,-91.44z"/>
  </g>
 </g>
</svg>
